{
  "accessors": [
    {
      "bufferView": 2,
      "componentType": 5126,
      "count": 11328,
      "max": [
        0.14573225378990173,
        0.052649389952421188,
        1.1944626569747925
      ],
      "min": [
        0.11923433840274811,
        -0.023038676008582115,
        1.1597079038619995
      ],
      "type": "VEC3"
    },
    {
      "bufferView": 2,
      "byteOffset": 135936,
      "componentType": 5126,
      "count": 11328,
      "max": [
        0.9922829270362854,
        0.99186062812805176,
        0.9955633282661438
      ],
      "min": [
        -0.99228233098983765,
        -0.99185997247695923,
        -0.99556398391723633
      ],
      "type": "VEC3"
    },
    {
      "bufferView": 3,
      "componentType": 5126,
      "count": 11328,
      "max": [
        0,
        0,
        0,
        1
      ],
      "min": [
        0,
        0,
        0,
        1
      ],
      "type": "VEC4"
    },
    {
      "bufferView": 1,
      "componentType": 5126,
      "count": 11328,
      "max": [
        0,
        1
      ],
      "min": [
        0,
        1
      ],
      "type": "VEC2"
    },
    {
      "bufferView": 0,
      "componentType": 5125,
      "count": 17280,
      "max": [
        11327
      ],
      "min": [
        0
      ],
      "type": "SCALAR"
    },
    {
      "bufferView": 2,
      "byteOffset": 271872,
      "componentType": 5126,
      "count": 37,
      "max": [
        0.31848889589309692,
        0.079355098307132721,
        1.2174750566482544
      ],
      "min": [
        0.092642270028591156,
        -0.046280033886432648,
        1.0862115621566772
      ],
      "type": "VEC3"
    },
    {
      "bufferView": 2,
      "byteOffset": 272316,
      "componentType": 5126,
      "count": 37,
      "max": [
        0.99987292289733887,
        0.99780148267745972,
        0.99648600816726685
      ],
      "min": [
        -0.99949824810028076,
        -0.99520397186279297,
        -0.99615281820297241
      ],
      "type": "VEC3"
    },
    {
      "bufferView": 3,
      "byteOffset": 181248,
      "componentType": 5126,
      "count": 37,
      "max": [
        0,
        0,
        0,
        1
      ],
      "min": [
        0,
        0,
        0,
        1
      ],
      "type": "VEC4"
    },
    {
      "bufferView": 1,
      "byteOffset": 90624,
      "componentType": 5126,
      "count": 37,
      "max": [
        0,
        1
      ],
      "min": [
        0,
        1
      ],
      "type": "VEC2"
    },
    {
      "bufferView": 0,
      "byteOffset": 69120,
      "componentType": 5125,
      "count": 180,
      "max": [
        36
      ],
      "min": [
        0
      ],
      "type": "SCALAR"
    },
    {
      "bufferView": 2,
      "byteOffset": 272760,
      "componentType": 5126,
      "count": 898,
      "max": [
        0.3722635805606842,
        0.089842140674591064,
        1.2243279218673706
      ],
      "min": [
        0.29162204265594482,
        -0.054607469588518143,
        1.0798605680465698
      ],
      "type": "VEC3"
    },
    {
      "bufferView": 2,
      "byteOffset": 283536,
      "componentType": 5126,
      "count": 898,
      "max": [
        0.99985277652740479,
        0.98271805047988892,
        0.98105555772781372
      ],
      "min": [
        -0.99987292289733887,
        -0.98274147510528564,
        -0.98008894920349121
      ],
      "type": "VEC3"
    },
    {
      "bufferView": 3,
      "byteOffset": 181840,
      "componentType": 5126,
      "count": 898,
      "max": [
        0,
        0,
        0,
        1
      ],
      "min": [
        0,
        0,
        0,
        1
      ],
      "type": "VEC4"
    },
    {
      "bufferView": 1,
      "byteOffset": 90920,
      "componentType": 5126,
      "count": 898,
      "max": [
        0,
        1
      ],
      "min": [
        0,
        1
      ],
      "type": "VEC2"
    },
    {
      "bufferView": 0,
      "byteOffset": 69840,
      "componentType": 5125,
      "count": 5184,
      "max": [
        897
      ],
      "min": [
        0
      ],
      "type": "SCALAR"
    },
    {
      "bufferView": 2,
      "byteOffset": 294312,
      "componentType": 5126,
      "count": 48,
      "max": [
        0.27578327059745789,
        0.068681597709655762,
        1.2030566930770874
      ],
      "min": [
        0.11808707565069199,
        -0.036914926022291183,
        1.0974502563476562
      ],
      "type": "VEC3"
    },
    {
      "bufferView": 2,
      "byteOffset": 294888,
      "componentType": 5126,
      "count": 48,
      "max": [
        0.99990248680114746,
        0.86022204160690308,
        0.85245621204376221
      ],
      "min": [
        -0.70740264654159546,
        -0.84394615888595581,
        -0.85112994909286499
      ],
      "type": "VEC3"
    },
    {
      "bufferView": 3,
      "byteOffset": 196208,
      "componentType": 5126,
      "count": 48,
      "max": [
        0,
        0,
        0,
        1
      ],
      "min": [
        0,
        0,
        0,
        1
      ],
      "type": "VEC4"
    },
    {
      "bufferView": 1,
      "byteOffset": 98104,
      "componentType": 5126,
      "count": 48,
      "max": [
        1,
        2
      ],
      "min": [
        0,
        2
      ],
      "type": "VEC2"
    },
    {
      "bufferView": 0,
      "byteOffset": 90576,
      "componentType": 5125,
      "count": 186,
      "max": [
        47
      ],
      "min": [
        0
      ],
      "type": "SCALAR"
    },
    {
      "bufferView": 2,
      "byteOffset": 295464,
      "componentType": 5126,
      "count": 216,
      "max": [
        0.43816578388214111,
        0.028920581564307213,
        1.165431022644043
      ],
      "min": [
        0.1305951327085495,
        0.0052907643839716911,
        1.1457759141921997
      ],
      "type": "VEC3"
    },
    {
      "bufferView": 2,
      "byteOffset": 298056,
      "componentType": 5126,
      "count": 216,
      "max": [
        0.75885206460952759,
        0.98468589782714844,
        0.99999809265136719
      ],
      "min": [
        -0.75884252786636353,
        -0.98469763994216919,
        -0.99999809265136719
      ],
      "type": "VEC3"
    },
    {
      "bufferView": 3,
      "byteOffset": 196976,
      "componentType": 5126,
      "count": 216,
      "max": [
        0,
        0,
        0,
        1
      ],
      "min": [
        0,
        0,
        0,
        1
      ],
      "type": "VEC4"
    },
    {
      "bufferView": 1,
      "byteOffset": 98488,
      "componentType": 5126,
      "count": 216,
      "max": [
        0,
        1
      ],
      "min": [
        0,
        1
      ],
      "type": "VEC2"
    },
    {
      "bufferView": 0,
      "byteOffset": 91320,
      "componentType": 5125,
      "count": 1296,
      "max": [
        215
      ],
      "min": [
        0
      ],
      "type": "SCALAR"
    }
  ],
  "asset": {
    "extras": {
      "author": "8sianDude (https://sketchfab.com/haoliu95)",
      "license": "CC-BY-4.0 (http://creativecommons.org/licenses/by/4.0/)",
      "source": "https://sketchfab.com/3d-models/boba-tea-preview-for-l4d2-066f4c6e2fca48de99427fb3562c5401",
      "title": "Boba Tea Preview for L4D2"
    },
    "generator": "Sketchfab-6.36.0",
    "version": "2.0"
  },
  "bufferViews": [
    {
      "buffer": 0,
      "byteLength": 96504,
      "byteOffset": 0,
      "name": "floatBufferViews",
      "target": 34963
    },
    {
      "buffer": 0,
      "byteLength": 100216,
      "byteOffset": 96504,
      "byteStride": 8,
      "name": "floatBufferViews",
      "target": 34962
    },
    {
      "buffer": 0,
      "byteLength": 300648,
      "byteOffset": 196720,
      "byteStride": 12,
      "name": "floatBufferViews",
      "target": 34962
    },
    {
      "buffer": 0,
      "byteLength": 200432,
      "byteOffset": 497368,
      "byteStride": 16,
      "name": "floatBufferViews",
      "target": 34962
    }
  ],
  "buffers": [
    {
      "byteLength": 697800,
      "uri": "scene.bin"
    }
  ],
  "images": [
    {
      "uri": "textures/material_1_baseColor.png"
    },
    {
      "uri": "textures/material_2_baseColor.png"
    },
    {
      "uri": "textures/material_3_baseColor.png"
    },
    {
      "uri": "textures/material_4_baseColor.png"
    }
  ],
  "materials": [
    {
      "doubleSided": true,
      "emissiveFactor": [
        0,
        0,
        0
      ],
      "name": "material_1",
      "pbrMetallicRoughness": {
        "baseColorFactor": [
          1,
          1,
          1,
          1
        ],
        "baseColorTexture": {
          "index": 0,
          "texCoord": 0
        },
        "metallicFactor": 1,
        "roughnessFactor": 0.40000000000000002
      }
    },
    {
      "doubleSided": true,
      "emissiveFactor": [
        0,
        0,
        0
      ],
      "name": "material_2",
      "pbrMetallicRoughness": {
        "baseColorFactor": [
          1,
          1,
          1,
          1
        ],
        "baseColorTexture": {
          "index": 1,
          "texCoord": 0
        },
        "metallicFactor": 1,
        "roughnessFactor": 0.77877286589999994
      }
    },
    {
      "doubleSided": true,
      "emissiveFactor": [
        0,
        0,
        0
      ],
      "name": "material_0",
      "pbrMetallicRoughness": {
        "baseColorFactor": [
          1,
          1,
          1,
          1
        ],
        "baseColorTexture": {
          "index": 0,
          "texCoord": 0
        },
        "metallicFactor": 1,
        "roughnessFactor": 0.40000000000000002
      }
    },
    {
      "doubleSided": true,
      "emissiveFactor": [
        0,
        0,
        0
      ],
      "name": "material_3",
      "pbrMetallicRoughness": {
        "baseColorFactor": [
          1,
          1,
          1,
          1
        ],
        "baseColorTexture": {
          "index": 2,
          "texCoord": 0
        },
        "metallicFactor": 1,
        "roughnessFactor": 0.40000000000000002
      }
    },
    {
      "doubleSided": true,
      "emissiveFactor": [
        0,
        0,
        0
      ],
      "name": "material_4",
      "pbrMetallicRoughness": {
        "baseColorFactor": [
          1,
          1,
          1,
          1
        ],
        "baseColorTexture": {
          "index": 3,
          "texCoord": 0
        },
        "metallicFactor": 1,
        "roughnessFactor": 0.40000000000000002
      }
    }
  ],
  "meshes": [
    {
      "primitives": [
        {
          "attributes": {
            "NORMAL": 1,
            "POSITION": 0,
            "TANGENT": 2,
            "TEXCOORD_0": 3
          },
          "indices": 4,
          "material": 0,
          "mode": 4
        }
      ]
    },
    {
      "primitives": [
        {
          "attributes": {
            "NORMAL": 6,
            "POSITION": 5,
            "TANGENT": 7,
            "TEXCOORD_0": 8
          },
          "indices": 9,
          "material": 0,
          "mode": 4
        }
      ]
    },
    {
      "primitives": [
        {
          "attributes": {
            "NORMAL": 11,
            "POSITION": 10,
            "TANGENT": 12,
            "TEXCOORD_0": 13
          },
          "indices": 14,
          "material": 0,
          "mode": 4
        }
      ]
    },
    {
      "primitives": [
        {
          "attributes": {
            "NORMAL": 16,
            "POSITION": 15,
            "TANGENT": 17,
            "TEXCOORD_0": 18
          },
          "indices": 19,
          "material": 0,
          "mode": 4
        }
      ]
    },
    {
      "primitives": [
        {
          "attributes": {
            "NORMAL": 21,
            "POSITION": 20,
            "TANGENT": 22,
            "TEXCOORD_0": 23
          },
          "indices": 24,
          "material": 0,
          "mode": 4
        }
      ]
    }
  ],
  "nodes": [
    {
      "children": [
        1
      ],
      "name": "RootNode (gltf orientation matrix)",
      "rotation": [
        -0.70710678118654746,
        -0,
        -0,
        0.70710678118654757
      ]
    },
    {
      "children": [
        2
      ],
      "matrix": [
        0,
        0,
        1,
        0,
        -1,
        0,
        0,
        0,
        0,
        -1,
        0,
        0,
        0.28302094340324402,
        1.1697109937667847,
        0.88669008016586304,
        1
      ],
      "name": "RootNode (model correction matrix)"
    },
    {
      "children": [
        3,
        4
      ],
      "name": "v_bile_flask.mdl.cleaner.materialmerger.gles"
    },
    {
      "mesh": 0,
      "name": ""
    },
    {
      "children": [
        5,
        6,
        7,
        8
      ],
      "name": ""
    },
    {
      "mesh": 1,
      "name": ""
    },
    {
      "mesh": 2,
      "name": ""
    },
    {
      "mesh": 3,
      "name": ""
    },
    {
      "mesh": 4,
      "name": ""
    }
  ],
  "samplers": [
    {
      "magFilter": 9729,
      "minFilter": 9987,
      "wrapS": 10497,
      "wrapT": 10497
    }
  ],
  "scene": 0,
  "scenes": [
    {
      "name": "OSG_Scene",
      "nodes": [
        0
      ]
    }
  ],
  "textures": [
    {
      "sampler": 0,
      "source": 0
    },
    {
      "sampler": 0,
      "source": 1
    },
    {
      "sampler": 0,
      "source": 2
    },
    {
      "sampler": 0,
      "source": 3
    }
  ]
}

